<svg width="80" height="80" viewBox="0 0 80 80" fill="none" xmlns="http://www.w3.org/2000/svg">
    <rect width="80" height="80" fill="#F3F4F9"/>
    <path d="M16 11C16 9.34315 17.3431 8 19 8H48L64 22V69C64 70.6569 62.6569 72 61 72H19C17.3431 72 16 70.6569 16 69V11Z" fill="white"/>
    <path d="M48 8L64 22H51C49.3431 22 48 20.6569 48 19V8Z" fill="#7C85A6" fill-opacity="0.25"/>
    <path d="M12 44H55C56.6569 44 58 45.3431 58 47V61C58 62.6569 56.6569 64 55 64H15C13.3431 64 12 62.6569 12 61V44Z" fill="#7C85A6"/>
    <path d="M12 44H16V40L12 44Z" fill="#7C85A6" fill-opacity="0.75"/>
    <path d="M16.02 59V48.5H17.94V52.865H22.65V48.5H24.57V59H22.65V54.425H17.94V59H16.02ZM28.7558 59V50.045H25.6958V48.5H33.7508V50.045H30.6758V59H28.7558ZM34.8731 59V48.5H37.1531L40.4981 55.16L43.7981 48.5H46.0781V59H44.1581V51.755L41.2331 57.5H39.7181L36.7931 51.755V59H34.8731ZM47.8153 59V48.5H49.7353V57.5H54.3853V59H47.8153Z" fill="white"/>
</svg>
