<svg width="83" height="46" viewBox="0 0 83 46" fill="none" xmlns="http://www.w3.org/2000/svg">
    <line x1="41.5" y1="11.5" x2="59.5" y2="11.5" stroke="currentColor" stroke-width="3" stroke-linecap="round"/>
    <line x1="41.5" y1="5.5" x2="81.5" y2="5.5" stroke="currentColor" stroke-width="3" stroke-linecap="round"/>
    <rect x="0.5" y="0.5" width="29" height="45" stroke="currentColor"/>
    <line y1="-0.5" x2="51.5025" y2="-0.5" transform="matrix(0.538534 -0.842604 0.554018 0.832505 1.13208 45.1321)" stroke="currentColor"/>
    <line y1="-0.5" x2="51.5025" y2="-0.5" transform="matrix(0.538534 0.842604 -0.554018 0.832505 1.13208 1.73584)" stroke="currentColor"/>
    <line x1="45.5" y1="20.5" x2="77.5" y2="20.5" stroke="currentColor" stroke-linecap="round"/>
    <path d="M41.7617 21.1992H41.2461L41.0898 22H40.8105L40.9668 21.1992H40.5V20.9316H41.0176L41.1523 20.2402H40.6484V19.9688H41.2051L41.3652 19.1562H41.6445L41.4844 19.9688H42L42.1602 19.1562H42.4414L42.2812 19.9688H42.6797V20.2402H42.2285L42.0938 20.9316H42.5332V21.1992H42.043L41.8867 22H41.6055L41.7617 21.1992ZM41.2969 20.9316H41.8125L41.9473 20.2402H41.4316L41.2969 20.9316Z" fill="currentColor"/>
    <line x1="45.5" y1="27.5" x2="77.5" y2="27.5" stroke="currentColor" stroke-linecap="round"/>
    <path d="M41.7617 28.1992H41.2461L41.0898 29H40.8105L40.9668 28.1992H40.5V27.9316H41.0176L41.1523 27.2402H40.6484V26.9688H41.2051L41.3652 26.1562H41.6445L41.4844 26.9688H42L42.1602 26.1562H42.4414L42.2812 26.9688H42.6797V27.2402H42.2285L42.0938 27.9316H42.5332V28.1992H42.043L41.8867 29H41.6055L41.7617 28.1992ZM41.2969 27.9316H41.8125L41.9473 27.2402H41.4316L41.2969 27.9316Z" fill="currentColor"/>
    <line x1="45.5" y1="34.5" x2="77.5" y2="34.5" stroke="currentColor" stroke-linecap="round"/>
    <path d="M41.7617 35.1992H41.2461L41.0898 36H40.8105L40.9668 35.1992H40.5V34.9316H41.0176L41.1523 34.2402H40.6484V33.9688H41.2051L41.3652 33.1562H41.6445L41.4844 33.9688H42L42.1602 33.1562H42.4414L42.2812 33.9688H42.6797V34.2402H42.2285L42.0938 34.9316H42.5332V35.1992H42.043L41.8867 36H41.6055L41.7617 35.1992ZM41.2969 34.9316H41.8125L41.9473 34.2402H41.4316L41.2969 34.9316Z" fill="currentColor"/>
    <line x1="45.5" y1="41.5" x2="77.5" y2="41.5" stroke="currentColor" stroke-linecap="round"/>
    <path d="M41.7617 42.1992H41.2461L41.0898 43H40.8105L40.9668 42.1992H40.5V41.9316H41.0176L41.1523 41.2402H40.6484V40.9688H41.2051L41.3652 40.1562H41.6445L41.4844 40.9688H42L42.1602 40.1562H42.4414L42.2812 40.9688H42.6797V41.2402H42.2285L42.0938 41.9316H42.5332V42.1992H42.043L41.8867 43H41.6055L41.7617 42.1992ZM41.2969 41.9316H41.8125L41.9473 41.2402H41.4316L41.2969 41.9316Z" fill="currentColor"/>
</svg>
