<svg width="418" height="423" viewBox="0 0 418 423" fill="none" xmlns="http://www.w3.org/2000/svg">
<g clip-path="url(#clip0_304_42)">
<path fill-rule="evenodd" clip-rule="evenodd" d="M258.013 237.332V246.324H274.244C277.569 246.324 283.277 243.89 283.476 237.084V233.606C283.476 227.794 278.711 224.366 274.244 224.366H266.153V220.194H282.185V211.152H266.799C262.828 211.152 257.517 214.431 257.517 220.541V223.671C257.517 229.781 262.778 232.911 266.799 232.911C277.966 232.961 264.118 232.911 274.442 232.911V237.283L258.013 237.332ZM171.053 235.146C171.053 235.146 179.739 234.401 179.739 223.174C179.739 211.947 169.216 210.904 169.216 210.904H150.255V246.324H159.785V237.779L168.025 246.324H182.121L171.053 235.146ZM167.38 227.894H159.785V219.796H167.429C167.429 219.796 169.564 220.591 169.564 223.82C169.564 227.049 167.38 227.894 167.38 227.894ZM203.266 211.152H193.587C186.688 211.152 184.355 217.412 184.355 220.392V246.324H194.034V240.114H203.117V246.324H212.498V220.392C212.498 212.841 205.648 211.152 203.266 211.152ZM203.117 230.079H193.984V221.485C193.984 221.485 193.984 219.548 197.012 219.548H200.337C203.018 219.548 203.067 221.485 203.067 221.485V230.079H203.117Z" fill="#CC0000"/>
<path d="M226.991 211.152H216.915V246.324H226.991V211.152Z" fill="#CC0000"/>
<path fill-rule="evenodd" clip-rule="evenodd" d="M241.137 237.233V211.152H231.111V237.233V246.324H241.137H254.688V237.233H241.137Z" fill="#CC0000"/>
<path fill-rule="evenodd" clip-rule="evenodd" d="M90.4453 246.324H129.657C129.657 246.324 122.162 212.096 146.98 198.236C152.39 195.603 169.613 185.767 197.806 206.632C198.699 205.886 199.543 205.29 199.543 205.29C199.543 205.29 173.733 179.508 144.994 182.389C130.55 183.681 112.781 196.845 102.358 214.232C91.9343 231.619 90.4453 246.324 90.4453 246.324Z" fill="#CC0000"/>
<path fill-rule="evenodd" clip-rule="evenodd" d="M90.4453 246.324H129.657C129.657 246.324 122.162 212.096 146.98 198.236C152.39 195.603 169.613 185.767 197.806 206.632C198.699 205.886 199.543 205.29 199.543 205.29C199.543 205.29 173.733 179.508 144.994 182.389C130.55 183.681 112.781 196.845 102.358 214.232C91.9343 231.619 90.4453 246.324 90.4453 246.324Z" fill="#CC0000"/>
<path fill-rule="evenodd" clip-rule="evenodd" d="M90.4453 246.324H129.657C129.657 246.324 122.162 212.096 146.98 198.236C152.39 195.603 169.613 185.767 197.806 206.632C198.699 205.886 199.543 205.29 199.543 205.29C199.543 205.29 173.733 179.508 144.994 182.389C130.501 183.681 112.731 196.845 102.308 214.232C91.8847 231.619 90.4453 246.324 90.4453 246.324ZM172.145 185.171L172.343 181.843C171.896 181.594 170.655 180.998 167.528 180.104L167.33 183.383C168.968 183.929 170.556 184.525 172.145 185.171Z" fill="#CC0000"/>
<path fill-rule="evenodd" clip-rule="evenodd" d="M167.429 195.703L167.231 198.832C168.869 198.882 170.507 199.081 172.145 199.428L172.343 196.348C170.655 196.001 169.018 195.802 167.429 195.703ZM149.064 180.203H149.561L148.568 177.173C147.029 177.173 145.441 177.272 143.803 177.471L144.746 180.402C146.185 180.253 147.625 180.203 149.064 180.203ZM151.447 198.485L152.588 201.912C154.028 201.217 155.467 200.621 156.907 200.174L155.815 196.895C154.127 197.392 152.688 197.938 151.447 198.485ZM128.912 185.419L126.679 181.992C125.438 182.637 124.147 183.333 122.807 184.128L125.091 187.605C126.381 186.81 127.622 186.065 128.912 185.419ZM139.088 207.774L141.47 211.351C142.314 210.109 143.307 208.966 144.399 207.824L142.165 204.446C141.023 205.489 139.981 206.632 139.088 207.774ZM131.891 223.77L135.911 226.95C136.109 225.012 136.457 223.075 136.953 221.137L133.38 218.306C132.734 220.144 132.288 221.982 131.891 223.77ZM110.15 200.174L106.626 197.094C105.336 198.335 104.095 199.577 102.953 200.819L106.775 204.098C107.818 202.757 108.959 201.415 110.15 200.174ZM95.1606 222.379L89.4526 220.293C88.5095 222.429 87.4672 224.913 86.9708 226.254L92.6788 228.341C93.3241 226.652 94.3664 224.217 95.1606 222.379ZM131.146 236.388C131.245 239.021 131.493 241.157 131.742 242.648L137.698 244.784C137.251 242.846 136.804 240.661 136.507 238.326L131.146 236.388Z" fill="#CC0000"/>
<path d="M382.209 76.696C382.209 100.794 362.694 120.329 338.619 120.329C314.546 120.329 295.032 100.794 295.032 76.696C295.032 52.6022 314.546 33.0695 338.619 33.0695C362.694 33.0695 382.209 52.6022 382.209 76.696Z" fill="black"/>
<path d="M357.679 49.2119C353.251 49.3636 349.386 51.8103 346.507 55.1866C343.321 58.8935 341.204 63.2857 339.675 67.7737C336.944 65.5317 334.838 62.6307 330.454 61.3689C327.066 60.3941 323.509 60.7955 320.236 63.2352C318.688 64.3935 317.619 66.1431 317.112 67.7932C315.797 72.0703 318.494 75.8807 319.719 77.246L322.398 80.1174C322.949 80.6814 324.28 82.1502 323.629 84.2553C322.93 86.5479 320.17 88.0283 317.34 87.1578C316.075 86.7696 314.26 85.8275 314.667 84.5027C314.834 83.9589 315.223 83.5497 315.432 83.086C315.621 82.6807 315.714 82.3804 315.772 82.1992C316.289 80.5118 315.582 78.3141 313.775 77.7548C312.087 77.2366 310.362 77.6474 309.693 79.8202C308.933 82.2894 310.115 86.7712 316.44 88.7207C323.851 91.004 330.117 86.9633 331.006 81.6989C331.567 78.4012 330.078 75.9484 327.353 72.7985L325.131 70.3378C323.786 68.9928 323.324 66.6994 324.716 64.9373C325.892 63.4499 327.564 62.8166 330.305 63.5619C334.308 64.6479 336.09 67.4275 339.066 69.6696C337.839 73.7048 337.035 77.754 336.309 81.3847L335.863 84.0927C333.736 95.2578 332.112 101.39 327.891 104.911C327.041 105.517 325.825 106.422 323.994 106.487C323.032 106.516 322.722 105.854 322.709 105.565C322.688 104.892 323.255 104.581 323.632 104.28C324.197 103.972 325.05 103.46 324.991 101.824C324.93 99.892 323.33 98.2155 321.018 98.2918C319.286 98.3501 316.646 99.9807 316.746 102.968C316.848 106.054 319.72 108.365 324.053 108.219C326.368 108.14 331.54 107.198 336.634 101.136C342.565 94.185 344.225 86.2188 345.473 80.3873L346.867 72.688C347.638 72.7806 348.467 72.8436 349.367 72.8654C356.754 73.0217 360.447 69.1935 360.503 66.4069C360.541 64.7211 359.399 63.0601 357.799 63.0998C356.656 63.1317 355.219 63.8949 354.875 65.478C354.536 67.03 357.225 68.4326 355.124 69.7979C353.632 70.7641 350.957 71.4441 347.189 70.8925L347.874 67.1023C349.272 59.9157 350.997 51.0767 357.539 50.8604C358.017 50.8378 359.76 50.8806 359.801 52.0366C359.812 52.4202 359.716 52.5213 359.266 53.4035C358.806 54.0912 358.633 54.6793 358.656 55.3515C358.718 57.1843 360.111 58.3917 362.131 58.3217C364.83 58.2314 365.604 55.602 365.56 54.2507C365.446 51.0728 362.102 49.0657 357.679 49.2119Z" fill="white"/>
<path d="M354.803 138.494C359.205 138.494 362.159 141.679 362.159 146.083C362.159 150.236 359.149 153.674 354.803 153.674C350.429 153.674 347.418 150.236 347.418 146.083C347.418 141.679 350.372 138.494 354.803 138.494ZM354.803 151.515C357.926 151.515 359.318 148.672 359.318 146.083C359.318 143.327 357.644 140.654 354.803 140.654C351.936 140.654 350.259 143.327 350.259 146.083C350.26 148.672 351.65 151.515 354.803 151.515Z" fill="black"/>
<path d="M347.052 139.843V138.834H343.217V137.456C343.217 135.495 343.501 134.014 345.801 134.014C345.845 134.014 345.889 134.017 345.933 134.019C345.938 134.019 345.938 134.013 345.944 134.013C346.58 134.06 347.111 133.539 347.148 132.9L347.195 132.025C346.655 131.939 346.085 131.853 345.405 131.853C341.459 131.853 340.549 134.157 340.549 137.683V138.834H337.14V139.959C337.226 140.543 337.726 140.992 338.334 140.992C338.337 140.992 338.34 140.996 338.343 140.996H340.549V153.333H342.021C342.024 153.333 342.022 153.331 342.025 153.331C342.635 153.331 343.137 152.874 343.218 152.284V140.995H345.889C346.519 140.975 347.024 140.472 347.052 139.843Z" fill="black"/>
<path d="M311.489 138.834C311.484 138.834 311.482 138.837 311.475 138.837C310.912 138.837 310.367 139.224 310.13 139.747L306.455 150.833H306.399L302.806 139.753C302.571 139.227 302.023 138.837 301.457 138.837C301.452 138.837 301.449 138.834 301.443 138.834H299.582L304.495 152.367C304.667 152.85 305.007 153.59 305.007 153.902C305.007 154.186 304.212 157.484 301.825 157.484C301.766 157.484 301.707 157.478 301.647 157.473C301.039 157.44 300.579 157.865 300.476 158.52L300.404 159.445C300.887 159.53 301.371 159.644 302.223 159.644C305.744 159.644 306.796 156.431 307.79 153.646L313.13 138.833H311.489V138.834Z" fill="black"/>
<path d="M294.516 141.78C292.311 140.651 289.899 139.883 289.856 137.612C289.863 135.197 292.078 134.564 293.786 134.567C293.793 134.566 293.801 134.566 293.804 134.566C294.545 134.566 295.138 134.639 295.716 134.766C295.725 134.766 295.723 134.757 295.733 134.757C296.344 134.801 296.857 134.322 296.93 133.719L296.979 132.843C295.86 132.565 294.69 132.423 293.672 132.423C289.959 132.446 287.204 134.317 287.195 137.883C287.2 141.003 289.3 142.21 291.558 143.306C293.774 144.371 296.2 145.252 296.221 147.825C296.207 150.511 293.619 151.502 291.834 151.505C290.79 151.502 289.657 151.24 288.704 150.939C288.105 150.84 287.615 151.369 287.538 152.068L287.457 152.849C288.769 153.275 290.114 153.643 291.467 153.643C291.467 153.643 291.468 153.643 291.47 153.643C291.474 153.643 291.477 153.643 291.484 153.643C295.642 153.613 298.873 151.954 298.885 147.645C298.879 144.319 296.765 142.924 294.516 141.78Z" fill="black"/>
<path d="M334.899 153.334C334.9 153.334 334.9 153.332 334.902 153.332C335.479 153.332 335.958 152.929 336.082 152.387V144.038C336.082 140.882 334.747 138.494 331.052 138.494C329.747 138.494 327.561 139.233 326.567 141.309C325.799 139.346 324.124 138.494 322.448 138.494C320.317 138.494 318.869 139.261 317.848 140.939H317.79V140.038C317.781 139.373 317.246 138.837 316.58 138.837C316.576 138.837 316.573 138.834 316.568 138.834H315.29V153.335H316.736C316.737 153.335 316.737 153.333 316.739 153.333C317.408 153.333 317.951 152.791 317.951 152.122C317.951 152.104 317.957 152.096 317.961 152.084V146.029C317.961 143.327 319.039 140.655 321.765 140.655C323.924 140.655 324.352 142.901 324.352 144.692V153.334H325.817C325.818 153.334 325.818 153.332 325.822 153.332C326.453 153.332 326.965 152.848 327.021 152.231V146.028C327.021 143.326 328.1 140.654 330.826 140.654C332.984 140.654 333.411 142.9 333.411 144.691V153.333H334.899V153.334Z" fill="black"/>
<path d="M376.157 153.334C376.16 153.334 376.16 153.332 376.162 153.332C376.812 153.332 377.337 152.819 377.367 152.176V144.72C377.367 140.826 375.69 138.494 371.941 138.494C369.925 138.494 367.995 139.489 367.198 141.139H367.142V140.055C367.142 140.053 367.139 140.053 367.139 140.05C367.139 139.38 366.597 138.836 365.929 138.836C365.923 138.836 365.92 138.833 365.915 138.833H364.555V153.333H366.023C366.023 153.333 366.023 153.331 366.026 153.331C366.66 153.331 367.176 152.839 367.227 152.216V146.623C367.227 143.1 368.592 140.653 371.629 140.653C373.959 140.796 374.695 142.445 374.695 145.827V153.332H376.157V153.334Z" fill="black"/>
<path d="M390.53 138.834C390.525 138.834 390.523 138.837 390.516 138.837C389.954 138.837 389.407 139.224 389.171 139.747L385.499 150.833H385.44L381.846 139.753C381.611 139.227 381.063 138.837 380.497 138.837C380.493 138.837 380.489 138.834 380.485 138.834H378.623L383.537 152.367C383.707 152.85 384.05 153.59 384.05 153.902C384.05 154.186 383.253 157.484 380.866 157.484C380.807 157.484 380.748 157.478 380.688 157.473C380.081 157.44 379.621 157.865 379.518 158.52L379.446 159.445C379.929 159.53 380.413 159.644 381.264 159.644C384.787 159.644 385.838 156.431 386.832 153.646L392.172 138.833H390.53V138.834Z" fill="black"/>
<path d="M113.948 54.7177C113.982 54.8457 114 54.9777 114 55.1102V75.7164C114 76.2547 113.713 76.7519 113.247 77.0198L95.999 86.9773V106.714C95.999 107.251 95.7143 107.747 95.2498 108.017L59.2459 128.8C59.1635 128.847 59.0735 128.877 58.9836 128.909C58.9499 128.92 58.9181 128.941 58.8825 128.95C58.6308 129.017 58.3663 129.017 58.1146 128.95C58.0734 128.939 58.0359 128.916 57.9966 128.901C57.9142 128.871 57.828 128.845 57.7494 128.8L21.7529 108.017C21.2875 107.749 21 107.252 21 106.714V44.8954C21 44.7602 21.0187 44.6287 21.0524 44.501C21.0637 44.4578 21.0899 44.4184 21.1049 44.3752C21.133 44.2963 21.1592 44.2156 21.2004 44.1423C21.2285 44.0935 21.2697 44.0541 21.3034 44.009C21.3465 43.9489 21.3858 43.8869 21.4364 43.8343C21.4795 43.7911 21.5357 43.7592 21.5844 43.7216C21.6387 43.6766 21.6874 43.6277 21.7492 43.5921H21.7511L39.7502 33.2007C40.214 32.9331 40.7848 32.9331 41.2486 33.2007L59.2477 43.5921H59.2515C59.3114 43.6296 59.362 43.6766 59.4163 43.7198C59.465 43.7573 59.5193 43.7911 59.5624 43.8324C59.6148 43.8869 59.6523 43.9489 59.6972 44.009C59.7291 44.0541 59.7722 44.0935 59.7984 44.1423C59.8415 44.2174 59.8658 44.2963 59.8958 44.3752C59.9108 44.4184 59.937 44.4578 59.9482 44.5029C59.9827 44.6309 60.0003 44.7629 60.0007 44.8954V83.5066L74.9993 74.8468V55.1084C74.9993 54.9769 75.0181 54.8435 75.0518 54.7177C75.0649 54.6726 75.0892 54.6332 75.1042 54.59C75.1342 54.5111 75.1604 54.4304 75.2016 54.3571C75.2297 54.3083 75.2709 54.2689 75.3028 54.2238C75.3477 54.1637 75.3852 54.1017 75.4376 54.0491C75.4807 54.0059 75.535 53.974 75.5837 53.9364C75.6399 53.8914 75.6886 53.8425 75.7485 53.8069H75.7504L93.7514 43.4155C94.2151 43.1475 94.7861 43.1475 95.2498 43.4155L113.249 53.8069C113.313 53.8444 113.361 53.8914 113.418 53.9346C113.464 53.9721 113.519 54.0059 113.562 54.0472C113.614 54.1017 113.652 54.1637 113.697 54.2238C113.73 54.2689 113.772 54.3083 113.798 54.3571C113.841 54.4304 113.865 54.5111 113.895 54.59C113.912 54.6332 113.936 54.6726 113.948 54.7177ZM111 74.8468V57.7114L104.701 61.3473L95.999 66.3711V83.5066L111.001 74.8468H111ZM93.0004 105.844V88.6976L84.4409 93.5993L59.9988 107.587V124.895L93.0004 105.844ZM24.0005 47.4966V105.844L56.9983 124.894V107.589L39.7596 97.8062L39.754 97.8024L39.7465 97.7987C39.6884 97.7649 39.6397 97.716 39.5854 97.6747C39.5386 97.6372 39.4843 97.6071 39.443 97.5658L39.4393 97.5602C39.3906 97.5132 39.3569 97.455 39.3157 97.4024C39.2782 97.3517 39.2333 97.3085 39.2033 97.2559L39.2014 97.2503C39.1677 97.1939 39.1471 97.1263 39.1228 97.0625C39.0984 97.0061 39.0666 96.9535 39.0516 96.8935V96.8916C39.0329 96.8202 39.0291 96.7451 39.0216 96.6718C39.0141 96.6155 38.9992 96.5592 38.9992 96.5028V96.4991V56.1563L30.2993 51.1306L24.0005 47.4984V47.4966ZM40.5013 36.2394L25.5045 44.8954L40.4975 53.5514L55.4924 44.8936L40.4975 36.2394H40.5013ZM48.3003 90.2601L57.0002 85.2382V47.4966L50.7014 51.1325L41.9996 56.1563V93.8979L48.3003 90.2601ZM94.5006 46.4542L79.5057 55.1102L94.5006 63.7662L109.494 55.1084L94.5006 46.4542ZM93.0004 66.3711L84.2986 61.3473L77.9998 57.7114V74.8468L86.6997 79.8688L93.0004 83.5066V66.3711ZM58.4967 104.986L80.4909 92.3955L91.4851 86.104L76.5014 77.4536L59.2496 87.413L43.5261 96.4897L58.4967 104.986Z" fill="#FF2D20"/>
<path d="M30.4183 335.861C30.4183 346.554 40.8256 356.537 57.2336 362.163C53.9571 378.713 56.6464 392.052 65.629 397.25C74.8622 402.592 88.6173 398.894 101.673 387.444C114.399 398.432 127.261 402.756 136.235 397.544C145.459 392.186 148.265 377.942 144.898 360.876C161.988 355.207 171.547 346.695 171.547 335.861C171.547 325.416 161.121 316.379 144.934 310.788C148.559 293.017 145.487 280.002 136.133 274.589C127.114 269.372 114.103 273.919 101.19 285.195C87.7557 273.227 74.8728 269.573 65.5274 275.001C56.5175 280.234 53.9465 293.815 57.2336 310.671C41.3797 316.217 30.4183 325.458 30.4183 335.861Z" fill="white"/>
<path d="M141.506 316.34C140.206 315.891 138.858 315.467 137.471 315.065C137.699 314.131 137.908 313.21 138.094 312.304C141.149 297.429 139.152 285.447 132.333 281.501C125.794 277.718 115.101 281.663 104.302 291.092C103.263 291.999 102.222 292.959 101.181 293.965C100.487 293.299 99.7946 292.656 99.1039 292.041C87.7856 281.958 76.4408 277.709 69.6286 281.666C63.0964 285.46 61.1619 296.725 63.9111 310.821C64.1766 312.183 64.4869 313.573 64.8379 314.987C63.2322 315.444 61.6822 315.932 60.199 316.451C46.9296 321.092 38.4551 328.367 38.4551 335.912C38.4551 343.706 47.5524 351.522 61.3736 356.262C62.4643 356.636 63.5961 356.99 64.7624 357.325C64.3839 358.854 64.0546 360.353 63.7782 361.814C61.1568 375.666 63.2039 386.665 69.7187 390.435C76.4479 394.328 87.7415 390.326 98.7385 380.682C99.6077 379.919 100.48 379.111 101.354 378.263C102.486 379.358 103.617 380.393 104.742 381.365C115.394 390.562 125.915 394.275 132.423 390.495C139.146 386.59 141.331 374.775 138.494 360.399C138.278 359.301 138.026 358.18 137.742 357.038C138.536 356.803 139.314 356.56 140.073 356.308C154.442 351.531 163.79 343.81 163.79 335.912C163.79 328.339 155.043 321.016 141.506 316.34Z" fill="#53C1DE"/>
<path d="M138.389 351.208C137.704 351.436 137.001 351.656 136.284 351.869C134.698 346.831 132.557 341.474 129.937 335.939C132.437 330.535 134.496 325.246 136.037 320.241C137.319 320.613 138.564 321.006 139.763 321.42C151.361 325.426 158.436 331.349 158.436 335.912C158.436 340.774 150.796 347.084 138.389 351.208ZM133.242 361.442C134.496 367.799 134.675 373.546 133.844 378.039C133.098 382.076 131.597 384.768 129.74 385.846C125.791 388.139 117.344 385.158 108.234 377.293C107.19 376.391 106.138 375.428 105.083 374.41C108.614 370.534 112.144 366.029 115.589 361.026C121.648 360.486 127.372 359.605 132.563 358.401C132.819 359.435 133.046 360.45 133.242 361.442ZM81.1847 385.449C77.3256 386.817 74.252 386.856 72.3941 385.781C68.4406 383.493 66.7971 374.662 69.039 362.816C69.2957 361.459 69.6014 360.066 69.9536 358.641C75.088 359.78 80.7704 360.6 86.844 361.094C90.312 365.99 93.9435 370.49 97.6032 374.43C96.8036 375.205 96.0071 375.942 95.2152 376.637C90.3524 380.902 85.4793 383.927 81.1847 385.449ZM63.1053 351.179C56.9938 349.083 51.9468 346.359 48.4872 343.387C45.3786 340.716 43.8091 338.064 43.8091 335.912C43.8091 331.333 50.6133 325.493 61.9615 321.523C63.3384 321.042 64.7799 320.588 66.2757 320.161C67.8441 325.28 69.9014 330.631 72.3843 336.043C69.8693 341.535 67.7827 346.972 66.199 352.15C65.1326 351.843 64.0994 351.519 63.1053 351.179ZM69.1657 309.79C66.8102 297.712 68.3746 288.601 72.3111 286.315C76.5042 283.879 85.7762 287.352 95.5487 296.058C96.1733 296.614 96.8005 297.197 97.4294 297.799C93.7878 301.723 90.1895 306.189 86.7523 311.056C80.8576 311.604 75.2151 312.485 70.0273 313.664C69.7011 312.347 69.4122 311.054 69.1657 309.79ZM123.23 323.184C121.989 321.034 120.716 318.936 119.418 316.895C123.417 317.402 127.249 318.075 130.847 318.899C129.767 322.373 128.42 326.004 126.835 329.727C125.698 327.562 124.496 325.378 123.23 323.184ZM101.182 301.639C103.652 304.323 106.125 307.32 108.558 310.572C106.107 310.456 103.625 310.395 101.123 310.395C98.6441 310.395 96.1807 310.454 93.7445 310.569C96.1796 307.347 98.6742 304.354 101.182 301.639ZM78.9941 323.221C77.7553 325.376 76.5751 327.548 75.4561 329.723C73.8969 326.013 72.563 322.365 71.4734 318.842C75.0494 318.039 78.8627 317.383 82.8363 316.885C81.52 318.945 80.2363 321.059 78.9941 323.22V323.221ZM82.9507 355.322C78.8453 354.863 74.9746 354.24 71.3995 353.459C72.5065 349.874 73.8699 346.148 75.4621 342.358C76.584 344.532 77.7689 346.704 79.0153 348.864H79.0155C80.2852 351.065 81.6006 353.22 82.9507 355.322ZM101.331 370.565C98.7929 367.818 96.2617 364.779 93.7896 361.51C96.1894 361.605 98.6361 361.653 101.123 361.653C103.677 361.653 106.203 361.595 108.689 361.484C106.248 364.812 103.784 367.855 101.331 370.565ZM126.886 342.165C128.562 345.996 129.974 349.702 131.095 353.227C127.461 354.058 123.538 354.728 119.404 355.226C120.705 353.158 121.989 351.023 123.251 348.827C124.528 346.606 125.74 344.381 126.886 342.165ZM118.613 346.144C116.654 349.552 114.642 352.806 112.601 355.877C108.881 356.144 105.039 356.281 101.123 356.281C97.2223 356.281 93.4284 356.16 89.775 355.922C87.6507 352.81 85.5955 349.547 83.6488 346.173H83.6492C81.7076 342.808 79.9206 339.415 78.3014 336.041C79.9202 332.659 81.7025 329.262 83.6329 325.904L83.6325 325.905C85.5681 322.537 87.6052 319.29 89.7098 316.198C93.4373 315.915 97.2596 315.767 101.122 315.767H101.123C105.003 315.767 108.83 315.916 112.557 316.201C114.629 319.271 116.652 322.507 118.596 325.875C120.561 329.281 122.366 332.656 123.999 335.965C122.371 339.331 120.57 342.739 118.613 346.144ZM129.658 286.155C133.855 288.584 135.488 298.377 132.851 311.22C132.682 312.039 132.493 312.874 132.287 313.72C127.087 312.516 121.441 311.62 115.529 311.064C112.085 306.143 108.516 301.67 104.934 297.797C105.897 296.867 106.859 295.981 107.817 295.145C117.07 287.065 125.718 283.875 129.658 286.155Z" fill="white"/>
<path d="M101.123 324.683C107.304 324.683 112.315 329.711 112.315 335.912C112.315 342.114 107.304 347.141 101.123 347.141C94.9416 347.141 89.9307 342.114 89.9307 335.912C89.9307 329.711 94.9416 324.683 101.123 324.683Z" fill="#53C1DE"/>
<path d="M371.2 289H397L332.5 399.9L268 289H293.478H317.342L332.5 314.716L347.335 289H371.2Z" fill="#41B883"/>
<path d="M268 289L332.5 399.9L397 289H371.2L332.5 355.54L293.478 289H268Z" fill="#41B883"/>
<path d="M293.478 289L332.5 355.861L371.2 289H347.335L332.5 314.716L317.343 289H293.478Z" fill="#35495E"/>
<path d="M192.22 37.1806C194.503 35.8664 197.478 35.8605 199.76 37.1806C211.24 43.7018 222.724 50.2128 234.202 56.738C236.361 57.9605 237.805 60.3759 237.784 62.8767V102.111C237.8 104.715 236.213 107.188 233.935 108.383C222.493 114.868 211.056 121.361 199.615 127.847C197.284 129.187 194.25 129.083 191.992 127.634C188.561 125.635 185.125 123.645 181.694 121.648C180.993 121.228 180.203 120.894 179.708 120.21C180.145 119.617 180.928 119.543 181.563 119.284C182.995 118.827 184.31 118.092 185.626 117.379C185.959 117.15 186.365 117.238 186.684 117.443C189.617 119.133 192.525 120.873 195.468 122.548C196.096 122.912 196.732 122.429 197.268 122.128C208.497 115.748 219.739 109.393 230.966 103.011C231.382 102.81 231.612 102.366 231.578 101.908C231.586 88.9652 231.58 76.0203 231.582 63.0778C231.63 62.5581 231.33 62.0802 230.863 61.8675C219.46 55.4119 208.063 48.9465 196.662 42.4892C196.465 42.3527 196.231 42.2795 195.991 42.2791C195.751 42.2787 195.517 42.3513 195.319 42.4872C183.918 48.9465 172.524 55.4179 161.123 61.8731C160.657 62.0862 160.344 62.5561 160.4 63.0778C160.402 76.0203 160.4 88.9652 160.4 101.91C160.38 102.133 160.429 102.357 160.54 102.552C160.65 102.747 160.818 102.903 161.02 102.999C164.062 104.733 167.108 106.455 170.153 108.184C171.868 109.112 173.974 109.663 175.863 108.952C177.531 108.351 178.699 106.64 178.668 104.861C178.683 91.9936 178.66 79.1246 178.679 66.2596C178.638 65.6884 179.177 65.2165 179.729 65.2703C181.191 65.2604 182.655 65.2505 184.117 65.2742C184.727 65.2604 185.147 65.8754 185.071 66.4509C185.065 79.3993 185.087 92.3481 185.061 105.297C185.065 108.747 183.655 112.502 180.48 114.191C176.568 116.228 171.733 115.796 167.869 113.843C164.523 112.164 161.331 110.183 158.045 108.385C155.761 107.196 154.182 104.713 154.198 102.111V62.8767C154.174 60.3241 155.676 57.8649 157.902 56.6602C169.342 50.1696 180.781 43.6741 192.22 37.1806Z" fill="#8CC84B"/>
<path d="M202.2 64.3584C207.19 64.0355 212.532 64.1671 217.022 66.6382C220.498 68.5318 222.425 72.5061 222.487 76.3887C222.39 76.9124 221.845 77.2013 221.348 77.1653C219.9 77.1634 218.452 77.1851 217.004 77.1554C216.39 77.1792 216.033 76.61 215.956 76.0642C215.54 74.2065 214.532 72.3666 212.793 71.4706C210.123 70.1267 207.027 70.1943 204.116 70.2223C201.99 70.3358 199.705 70.5208 197.904 71.7773C196.522 72.729 196.102 74.6504 196.595 76.1977C197.06 77.3088 198.336 77.6673 199.38 77.9977C205.393 79.5787 211.765 79.4214 217.664 81.502C220.106 82.3503 222.495 83.9992 223.33 86.5695C224.424 90.0145 223.945 94.1322 221.506 96.8978C219.529 99.1737 216.65 100.412 213.778 101.085C209.957 101.942 205.992 101.963 202.111 101.583C198.463 101.165 194.666 100.201 191.849 97.7022C189.441 95.5998 188.264 92.324 188.381 89.1623C188.409 88.6284 188.938 88.2561 189.446 88.2999C190.904 88.2881 192.362 88.2841 193.82 88.3019C194.402 88.26 194.834 88.7659 194.864 89.3177C195.133 91.0876 195.795 92.9453 197.33 93.9947C200.293 95.9164 204.011 95.7848 207.403 95.8385C210.214 95.7132 213.369 95.6753 215.663 93.8077C216.873 92.7425 217.232 90.9603 216.905 89.4272C216.551 88.1327 215.204 87.5296 214.047 87.1351C208.111 85.2474 201.667 85.9324 195.789 83.7977C193.402 82.9498 191.094 81.3467 190.177 78.8819C188.898 75.3934 189.484 71.0785 192.178 68.4062C194.804 65.7481 198.596 64.7244 202.2 64.3581V64.3584Z" fill="#8CC84B"/>
</g>
<defs>
<clipPath id="clip0_304_42">
<rect width="418" height="423" fill="white"/>
</clipPath>
</defs>
</svg>
