<svg width="120" height="80" viewBox="0 0 120 80" fill="none" xmlns="http://www.w3.org/2000/svg">
    <rect x="7" y="20" width="34" height="44" rx="3" fill="white"/>
    <circle cx="24" cy="32" r="3" stroke="#7C85A6" stroke-width="2"/>
    <path d="M28 42C28 39.7909 26.2091 38 24 38C21.7909 38 20 39.7909 20 42" stroke="#7C85A6" stroke-width="2"/>
    <rect x="43" y="20" width="34" height="44" rx="3" fill="white"/>
    <rect x="79" y="20" width="34" height="44" rx="3" fill="white"/>
    <rect x="47" y="48" width="26" height="2" fill="#7C85A6" fill-opacity="0.5"/>
    <rect x="83" y="48" width="26" height="2" fill="#7C85A6" fill-opacity="0.5"/>
    <rect x="47" y="52" width="26" height="2" fill="#7C85A6" fill-opacity="0.5"/>
    <rect x="83" y="52" width="26" height="2" fill="#7C85A6" fill-opacity="0.5"/>
    <rect x="47" y="56" width="19" height="2" fill="#7C85A6" fill-opacity="0.5"/>
    <rect x="83" y="56" width="19" height="2" fill="#7C85A6" fill-opacity="0.5"/>
    <rect x="35" y="10" width="50" height="4" fill="#7C85A6" fill-opacity="0.5"/>
    <rect x="11" y="48" width="26" height="2" fill="#7C85A6" fill-opacity="0.5"/>
    <circle cx="60" cy="32" r="3" stroke="#7C85A6" stroke-width="2"/>
    <path d="M64 42C64 39.7909 62.2091 38 60 38C57.7909 38 56 39.7909 56 42" stroke="#7C85A6" stroke-width="2"/>
    <circle cx="96" cy="32" r="3" stroke="#7C85A6" stroke-width="2"/>
    <path d="M100 42C100 39.7909 98.2091 38 96 38C93.7909 38 92 39.7909 92 42" stroke="#7C85A6" stroke-width="2"/>
    <rect x="11" y="52" width="26" height="2" fill="#7C85A6" fill-opacity="0.5"/>
    <rect x="11" y="56" width="12" height="2" fill="#7C85A6" fill-opacity="0.5"/>
</svg>
