<svg width="120" height="80" viewBox="0 0 120 80" fill="none" xmlns="http://www.w3.org/2000/svg">
    <rect x="48" y="8" width="24" height="4" fill="#7C85A6" fill-opacity="0.5"/>
    <rect x="19" y="19" width="40" height="48" rx="3" fill="white"/>
    <rect x="61" y="19" width="40" height="48" rx="3" fill="white"/>
    <rect x="24" y="54" width="30" height="8" rx="1" fill="#7C85A6"/>
    <rect x="66" y="54" width="30" height="8" rx="1" fill="#7C85A6"/>
    <rect x="24.2632" y="44" width="29.4737" height="2" fill="#7C85A6" fill-opacity="0.5"/>
    <rect x="66.2632" y="44" width="29.4737" height="2" fill="#7C85A6" fill-opacity="0.5"/>
    <rect x="28.4736" y="48" width="21.0526" height="2" fill="#7C85A6" fill-opacity="0.5"/>
    <rect x="70.4736" y="48" width="21.0526" height="2" fill="#7C85A6" fill-opacity="0.5"/>
    <path d="M33 33.8838V32.6224H34.2946C34.2725 32.4232 34.2614 32.2241 34.2614 32.0249C34.2614 31.8147 34.2725 31.61 34.2946 31.4108H33V30.1328H34.4938C34.8036 28.8824 35.4232 27.8811 36.3527 27.1286C37.2932 26.3762 38.4772 26 39.9046 26C41.2988 26 42.4385 26.3485 43.3237 27.0456C44.2199 27.7317 44.7787 28.6999 45 29.9502H42.6598C42.5159 29.3195 42.2061 28.8271 41.7303 28.473C41.2656 28.1079 40.6515 27.9253 39.888 27.9253C39.1024 27.9253 38.4385 28.1189 37.8963 28.5062C37.3651 28.8935 36.9723 29.4357 36.7178 30.1328H40.1701V31.4108H36.4523C36.4412 31.61 36.4357 31.8147 36.4357 32.0249C36.4357 32.2351 36.4412 32.4343 36.4523 32.6224H40.1701V33.8838H36.7178C36.9613 34.592 37.3541 35.1397 37.8963 35.527C38.4385 35.9142 39.1024 36.1079 39.888 36.1079C40.6515 36.1079 41.2656 35.9419 41.7303 35.61C42.2061 35.2669 42.5159 34.7967 42.6598 34.1992H45C44.7787 35.3942 44.2199 36.3292 43.3237 37.0041C42.4385 37.6791 41.2988 38.0166 39.9046 38.0166C38.4772 38.0166 37.2932 37.6459 36.3527 36.9046C35.4122 36.1521 34.787 35.1452 34.4772 33.8838H33Z" fill="#7C85A6"/>
    <path d="M75 33.8838V32.6224H76.2946C76.2725 32.4232 76.2614 32.2241 76.2614 32.0249C76.2614 31.8147 76.2725 31.61 76.2946 31.4108H75V30.1328H76.4938C76.8036 28.8824 77.4232 27.8811 78.3527 27.1286C79.2932 26.3762 80.4772 26 81.9046 26C83.2988 26 84.4385 26.3485 85.3237 27.0456C86.2199 27.7317 86.7787 28.6999 87 29.9502H84.6598C84.5159 29.3195 84.2061 28.8271 83.7303 28.473C83.2656 28.1079 82.6515 27.9253 81.888 27.9253C81.1024 27.9253 80.4385 28.1189 79.8963 28.5062C79.3651 28.8935 78.9723 29.4357 78.7178 30.1328H82.1701V31.4108H78.4523C78.4412 31.61 78.4357 31.8147 78.4357 32.0249C78.4357 32.2351 78.4412 32.4343 78.4523 32.6224H82.1701V33.8838H78.7178C78.9613 34.592 79.3541 35.1397 79.8963 35.527C80.4385 35.9142 81.1024 36.1079 81.888 36.1079C82.6515 36.1079 83.2656 35.9419 83.7303 35.61C84.2061 35.2669 84.5159 34.7967 84.6598 34.1992H87C86.7787 35.3942 86.2199 36.3292 85.3237 37.0041C84.4385 37.6791 83.2988 38.0166 81.9046 38.0166C80.4772 38.0166 79.2932 37.6459 78.3527 36.9046C77.4122 36.1521 76.787 35.1452 76.4772 33.8838H75Z" fill="#7C85A6"/>
    <rect x="48" y="8" width="24" height="4" fill="#7C85A6" fill-opacity="0.5"/>
    <rect x="19" y="19" width="40" height="48" rx="3" fill="white"/>
    <rect x="61" y="19" width="40" height="48" rx="3" fill="white"/>
    <rect x="24" y="54" width="30" height="8" rx="1" fill="#7C85A6"/>
    <rect x="66" y="54" width="30" height="8" rx="1" fill="#7C85A6"/>
    <rect x="24.2632" y="44" width="29.4737" height="2" fill="#7C85A6" fill-opacity="0.5"/>
    <rect x="66.2632" y="44" width="29.4737" height="2" fill="#7C85A6" fill-opacity="0.5"/>
    <rect x="28.4736" y="48" width="21.0526" height="2" fill="#7C85A6" fill-opacity="0.5"/>
    <rect x="70.4736" y="48" width="21.0526" height="2" fill="#7C85A6" fill-opacity="0.5"/>
    <path d="M33 33.8838V32.6224H34.2946C34.2725 32.4232 34.2614 32.2241 34.2614 32.0249C34.2614 31.8147 34.2725 31.61 34.2946 31.4108H33V30.1328H34.4938C34.8036 28.8824 35.4232 27.8811 36.3527 27.1286C37.2932 26.3762 38.4772 26 39.9046 26C41.2988 26 42.4385 26.3485 43.3237 27.0456C44.2199 27.7317 44.7787 28.6999 45 29.9502H42.6598C42.5159 29.3195 42.2061 28.8271 41.7303 28.473C41.2656 28.1079 40.6515 27.9253 39.888 27.9253C39.1024 27.9253 38.4385 28.1189 37.8963 28.5062C37.3651 28.8935 36.9723 29.4357 36.7178 30.1328H40.1701V31.4108H36.4523C36.4412 31.61 36.4357 31.8147 36.4357 32.0249C36.4357 32.2351 36.4412 32.4343 36.4523 32.6224H40.1701V33.8838H36.7178C36.9613 34.592 37.3541 35.1397 37.8963 35.527C38.4385 35.9142 39.1024 36.1079 39.888 36.1079C40.6515 36.1079 41.2656 35.9419 41.7303 35.61C42.2061 35.2669 42.5159 34.7967 42.6598 34.1992H45C44.7787 35.3942 44.2199 36.3292 43.3237 37.0041C42.4385 37.6791 41.2988 38.0166 39.9046 38.0166C38.4772 38.0166 37.2932 37.6459 36.3527 36.9046C35.4122 36.1521 34.787 35.1452 34.4772 33.8838H33Z" fill="#7C85A6"/>
    <path d="M75 33.8838V32.6224H76.2946C76.2725 32.4232 76.2614 32.2241 76.2614 32.0249C76.2614 31.8147 76.2725 31.61 76.2946 31.4108H75V30.1328H76.4938C76.8036 28.8824 77.4232 27.8811 78.3527 27.1286C79.2932 26.3762 80.4772 26 81.9046 26C83.2988 26 84.4385 26.3485 85.3237 27.0456C86.2199 27.7317 86.7787 28.6999 87 29.9502H84.6598C84.5159 29.3195 84.2061 28.8271 83.7303 28.473C83.2656 28.1079 82.6515 27.9253 81.888 27.9253C81.1024 27.9253 80.4385 28.1189 79.8963 28.5062C79.3651 28.8935 78.9723 29.4357 78.7178 30.1328H82.1701V31.4108H78.4523C78.4412 31.61 78.4357 31.8147 78.4357 32.0249C78.4357 32.2351 78.4412 32.4343 78.4523 32.6224H82.1701V33.8838H78.7178C78.9613 34.592 79.3541 35.1397 79.8963 35.527C80.4385 35.9142 81.1024 36.1079 81.888 36.1079C82.6515 36.1079 83.2656 35.9419 83.7303 35.61C84.2061 35.2669 84.5159 34.7967 84.6598 34.1992H87C86.7787 35.3942 86.2199 36.3292 85.3237 37.0041C84.4385 37.6791 83.2988 38.0166 81.9046 38.0166C80.4772 38.0166 79.2932 37.6459 78.3527 36.9046C77.4122 36.1521 76.787 35.1452 76.4772 33.8838H75Z" fill="#7C85A6"/>
</svg>
