<svg width="120" height="80" viewBox="0 0 120 80" fill="none" xmlns="http://www.w3.org/2000/svg">
    <rect x="20" y="14" width="80" height="52" rx="3" fill="white"/>
    <path d="M35 52.3L49.781 25H55.436L60.584 52.3H55.319L54.227 45.982H43.58L40.265 52.3H35ZM45.569 42.16H53.603L51.614 30.616L45.569 42.16Z" fill="#7C85A6"/>
    <path d="M69.7167 52.768C67.5327 52.768 65.9337 52.274 64.9197 51.286C63.9057 50.272 63.3987 49.063 63.3987 47.659C63.3987 45.579 64.2697 43.928 66.0117 42.706C67.7537 41.484 70.0807 40.873 72.9927 40.873H77.9067L77.9847 40.405C78.0107 40.249 78.0237 40.093 78.0237 39.937C78.0497 39.755 78.0627 39.599 78.0627 39.469C78.0627 38.481 77.7507 37.753 77.1267 37.285C76.5027 36.791 75.7097 36.544 74.7477 36.544C73.7337 36.544 72.7977 36.791 71.9397 37.285C71.1077 37.753 70.5097 38.455 70.1457 39.391H65.2707C65.6607 37.987 66.3367 36.765 67.2987 35.725C68.2867 34.685 69.4827 33.892 70.8867 33.346C72.2907 32.774 73.8117 32.488 75.4497 32.488C77.8417 32.488 79.7137 33.021 81.0657 34.087C82.4437 35.153 83.1327 36.687 83.1327 38.689C83.1327 38.949 83.1197 39.235 83.0937 39.547C83.0677 39.833 83.0287 40.119 82.9767 40.405L80.8707 52.3H76.4247L76.6197 49.297C75.8657 50.285 74.9167 51.117 73.7727 51.793C72.6547 52.443 71.3027 52.768 69.7167 52.768ZM71.5497 48.868C72.9797 48.868 74.1627 48.4 75.0987 47.464C76.0607 46.528 76.7627 45.371 77.2047 43.993H72.9927C71.6927 43.993 70.6657 44.253 69.9117 44.773C69.1577 45.293 68.7807 46.008 68.7807 46.918C68.7807 47.568 69.0277 48.062 69.5217 48.4C70.0417 48.712 70.7177 48.868 71.5497 48.868Z" fill="#7C85A6"/>
</svg>
